<?xml version="1.0" encoding="utf-8"?>
<svg xmlns="http://www.w3.org/2000/svg" viewBox="0 0 100 100" width="100" height="100" xml:space="preserve" style="opacity: 0.85; fill: none; stroke: #3b204c; stroke-width: 2.2; stroke-linecap: round; stroke-linejoin: round;">
                    <!-- Scroll paper background -->
                    <path d="M 25,25 C 45,20 55,30 75,25 L 75,75 C 55,80 45,70 25,75 Z" style="fill: #fffdf5;" />
                    <!-- Left roll -->
                    <path d="M 25,25 C 20,25 20,15 25,15 C 30,15 30,25 25,25 C 25,25 25,75 25,75 C 20,75 20,85 25,85 C 30,85 30,75 25,75" style="fill: #ffe5ec;" />
                    <!-- Right roll -->
                    <path d="M 75,25 C 80,25 80,15 75,15 C 70,15 70,25 75,25 C 75,25 75,75 75,75 C 80,75 80,85 75,85 C 70,85 70,75 75,75" style="fill: #ffe5ec;" />
                    <!-- Writing lines -->
                    <line x1="33" y1="36" x2="67" y2="36" style="stroke-width: 1.2;" />
                    <line x1="33" y1="46" x2="67" y2="46" style="stroke-width: 1.2;" />
                    <line x1="33" y1="56" x2="67" y2="56" style="stroke-width: 1.2;" />
                    <line x1="33" y1="66" x2="67" y2="66" style="stroke-width: 1.2;" />
                    <!-- Cherry blossoms -->
                    <g style="transform: translate(12px, 12px) scale(0.65);">
                        <path d="M 25,25 C 22,17 17,17 20,24 C 15,20 12,24 19,26 C 12,29 15,34 20,29 C 22,35 27,35 25,29 C 30,34 32,29 26,26 C 32,24 30,20 25,24 Z" style="fill: #ffccd5; stroke-width: 1.5;" />
                    </g>
                </svg>