<?xml version="1.0" encoding="utf-8"?>
<svg xmlns="http://www.w3.org/2000/svg" viewBox="0 0 100 100" width="95" height="95" xml:space="preserve" style="opacity: 0.85; fill: none; stroke: #3b204c; stroke-width: 2.2; stroke-linecap: round; stroke-linejoin: round;">
                    <!-- Stack of books -->
                    <!-- Bottom book -->
                    <path d="M 20,70 L 50,78 L 80,70 L 80,60 L 50,68 L 20,60 Z" style="fill: #be9ecb;" />
                    <path d="M 22,68 L 50,76 L 78,68 L 78,61 L 50,69 L 22,61 Z" style="fill: #fffdf5;" />
                    <path d="M 20,60 L 50,68 L 80,60 L 50,52 Z" style="fill: #db4d94;" />
                    <!-- Top book -->
                    <path d="M 25,50 L 50,56 L 75,50 L 75,43 L 50,49 L 25,43 Z" style="fill: #c7f9cc;" />
                    <path d="M 27,48 L 50,54 L 73,48 L 73,44 L 50,50 L 27,44 Z" style="fill: #fffdf5;" />
                    <path d="M 25,43 L 50,49 L 75,43 L 50,37 Z" style="fill: #ffe5ec;" />
                    <!-- Cherry blossoms -->
                    <g style="transform: translate(50px, 5px) scale(0.75);">
                        <path d="M 25,25 C 22,17 17,17 20,24 C 15,20 12,24 19,26 C 12,29 15,34 20,29 C 22,35 27,35 25,29 C 30,34 32,29 26,26 C 32,24 30,20 25,24 Z" style="fill: #ffccd5; stroke-width: 1.5;" />
                        <circle cx="22" cy="26" r="2" style="fill: #ffb7c5; stroke: #3b204c; stroke-width: 0.8;" />
                    </g>
                    <g style="transform: translate(5px, 25px) scale(0.6);">
                        <path d="M 25,25 C 22,17 17,17 20,24 C 15,20 12,24 19,26 C 12,29 15,34 20,29 C 22,35 27,35 25,29 C 30,34 32,29 26,26 C 32,24 30,20 25,24 Z" style="fill: #ffe5ec; stroke-width: 1.5;" />
                    </g>
                </svg>