<?xml version="1.0" encoding="utf-8"?>
<svg xmlns="http://www.w3.org/2000/svg" viewBox="0 0 100 100" width="80" height="80" xml:space="preserve" style="opacity: 0.85; fill: none; stroke: #3b204c; stroke-width: 2.2; stroke-linecap: round; stroke-linejoin: round;">
                    <!-- Cassette Outer Shell -->
                    <rect x="18" y="32" width="64" height="40" rx="3" style="fill: #be9ecb;" />
                    <!-- Inner Label -->
                    <rect x="26" y="38" width="48" height="20" rx="1" style="fill: #fffdf5;" />
                    <!-- Tape Reels -->
                    <circle cx="38" cy="48" r="6" style="fill: #19161c;" />
                    <circle cx="62" cy="48" r="6" style="fill: #19161c;" />
                    <!-- Center holes -->
                    <circle cx="38" cy="48" r="2.5" style="fill: #fffdf5;" />
                    <circle cx="62" cy="48" r="2.5" style="fill: #fffdf5;" />
                    <!-- Bottom trapezoid window -->
                    <polygon points="32,72 68,72 62,64 38,64" style="fill: #ffd8e6;" />
                    <!-- Flowers wrapping cassette -->
                    <g style="transform: translate(55px, 20px) scale(0.6;">
                        <path d="M 25,25 C 22,17 17,17 20,24 C 15,20 12,24 19,26 C 12,29 15,34 20,29 C 22,35 27,35 25,29 C 30,34 32,29 26,26 C 32,24 30,20 25,24 Z" style="fill: #ffccd5; stroke-width: 1.5;" />
                    </g>
                </svg>