<?xml version="1.0" encoding="utf-8"?>
<svg xmlns="http://www.w3.org/2000/svg" viewBox="0 0 100 100" width="60" height="60" xml:space="preserve" style="opacity: 0.85; fill: none; stroke: #3b204c; stroke-width: 2.2; stroke-linecap: round; stroke-linejoin: round;">
                    <!-- Left bracket -->
                    <path d="M 35,25 C 25,25 25,35 25,45 C 25,50 20,50 20,50 C 20,50 25,50 25,55 C 25,65 25,75 35,75" />
                    <!-- Right bracket -->
                    <path d="M 65,25 C 75,25 75,35 75,45 C 75,50 80,50 80,50 C 80,50 75,50 75,55 C 75,65 75,75 65,75" />
                    <!-- Central blossom -->
                    <g style="transform: translate(37px, 35px) scale(0.65);">
                        <path d="M 25,25 C 22,17 17,17 20,24 C 15,20 12,24 19,26 C 12,29 15,34 20,29 C 22,35 27,35 25,29 C 30,34 32,29 26,26 C 32,24 30,20 25,24 Z" style="fill: #ffccd5; stroke-width: 1.5;" />
                    </g>
                </svg>