<?xml version="1.0" encoding="utf-8"?>
<svg xmlns="http://www.w3.org/2000/svg" viewBox="0 0 100 100" width="90" height="90" xml:space="preserve" style="opacity: 0.85; fill: none; stroke: #3b204c; stroke-width: 2.2; stroke-linecap: round; stroke-linejoin: round;">
                    <!-- Disk shell -->
                    <path d="M 28,28 L 64,28 L 74,38 L 74,74 C 74,76 72,78 70,78 L 32,78 C 30,78 28,76 28,74 Z" style="fill: #be9ecb;" />
                    <rect x="37" y="50" width="26" height="24" rx="2" style="fill: #fffdf5;" />
                    <line x1="42" y1="56" x2="58" y2="56" />
                    <line x1="42" y1="63" x2="54" y2="63" />
                    <rect x="40" y="28" width="18" height="13" rx="1" style="fill: #ffd8e6;" />
                    <!-- Vines wrapping -->
                    <path d="M 20,70 Q 22,82 35,80 T 70,78" style="stroke: #c7f9cc; stroke-width: 1.8;" />
                    <!-- Cherry blossoms -->
                    <g style="transform: translate(62px, 20px) scale(0.65);">
                        <path d="M 25,25 C 22,17 17,17 20,24 C 15,20 12,24 19,26 C 12,29 15,34 20,29 C 22,35 27,35 25,29 C 30,34 32,29 26,26 C 32,24 30,20 25,24 Z" style="fill: #ffccd5; stroke-width: 1.5;" />
                    </g>
                    <g style="transform: translate(12px, 60px) scale(0.65);">
                        <path d="M 25,25 C 22,17 17,17 20,24 C 15,20 12,24 19,26 C 12,29 15,34 20,29 C 22,35 27,35 25,29 C 30,34 32,29 26,26 C 32,24 30,20 25,24 Z" style="fill: #ffe5ec; stroke-width: 1.5;" />
                    </g>
                </svg>