<?xml version="1.0" encoding="utf-8"?>
<svg xmlns="http://www.w3.org/2000/svg" viewBox="0 0 100 100" width="85" height="85" xml:space="preserve" style="opacity: 0.85; fill: none; stroke: #3b204c; stroke-width: 2.2; stroke-linecap: round; stroke-linejoin: round;">
                    <!-- Controller Body -->
                    <path d="M 25,35 L 75,35 C 88,35 90,65 78,75 C 72,80 62,70 50,70 C 38,70 28,80 22,75 C 10,65 12,35 25,35 Z" style="fill: #fffdf5;" />
                    <!-- D-Pad -->
                    <path d="M 32,45 L 32,55 M 27,50 L 37,50" style="stroke-width: 3;" />
                    <!-- Action Buttons -->
                    <circle cx="68" cy="46" r="3" style="fill: #3b204c;" />
                    <circle cx="74" cy="52" r="3" style="fill: #3b204c;" />
                    <circle cx="62" cy="52" r="3" style="fill: #3b204c;" />
                    <circle cx="68" cy="58" r="3" style="fill: #3b204c;" />
                    <!-- Joysticks -->
                    <circle cx="42" cy="58" r="6" />
                    <circle cx="58" cy="58" r="6" />
                    <!-- Blossoms -->
                    <g style="transform: translate(40px, 20px) scale(0.5);">
                        <path d="M 25,25 C 22,17 17,17 20,24 C 15,20 12,24 19,26 C 12,29 15,34 20,29 C 22,35 27,35 25,29 C 30,34 32,29 26,26 C 32,24 30,20 25,24 Z" style="fill: #ffe5ec; stroke-width: 1.5;" />
                    </g>
                </svg>