<?xml version="1.0" encoding="utf-8"?>
<svg xmlns="http://www.w3.org/2000/svg" viewBox="0 0 100 100" width="65" height="65" xml:space="preserve" style="opacity: 0.85; fill: none; stroke: #3b204c; stroke-width: 2.2; stroke-linecap: round; stroke-linejoin: round;">
                    <!-- Cap Diamond Top -->
                    <polygon points="50,25 80,35 50,45 20,35" style="fill: #be9ecb;" />
                    <!-- Cap Base -->
                    <path d="M 33,40 L 33,52 C 33,58 67,58 67,52 L 67,40" style="fill: #db4d94;" />
                    <!-- Tassel -->
                    <path d="M 50,35 L 75,45 L 75,55" />
                    <!-- Blossoms wrapping -->
                    <g style="transform: translate(10px, 35px) scale(0.6);">
                        <path d="M 25,25 C 22,17 17,17 20,24 C 15,20 12,24 19,26 C 12,29 15,34 20,29 C 22,35 27,35 25,29 C 30,34 32,29 26,26 C 32,24 30,20 25,24 Z" style="fill: #ffccd5; stroke-width: 1.5;" />
                    </g>
                </svg>