<?xml version="1.0" encoding="utf-8"?>
<svg xmlns="http://www.w3.org/2000/svg" viewBox="0 0 100 100" width="95" height="95" xml:space="preserve" style="opacity: 0.85; fill: none; stroke: #3b204c; stroke-width: 2.2; stroke-linecap: round; stroke-linejoin: round; transform: rotate(-15deg);">
                    <!-- Guitar body (slanted and sharp) -->
                    <path d="M 30,75 C 25,70 20,55 35,50 C 40,40 45,45 35,35 L 45,25 L 55,30 C 50,45 55,50 45,65 C 40,75 35,80 30,75 Z" style="fill: #db4d94;" />
                    <!-- Pickguard -->
                    <path d="M 35,55 L 45,50 L 40,65 Z" style="fill: #fffdf5;" />
                    <!-- Guitar Neck -->
                    <line x1="45" y1="35" x2="75" y2="10" style="stroke-width: 4;" />
                    <!-- Headstock -->
                    <polygon points="75,10 82,4 85,8 78,14" style="fill: #be9ecb;" />
                    <!-- Rose wrapping -->
                    <path d="M 35,45 Q 50,40 55,20" style="stroke: #c7f9cc; stroke-width: 1.8;" />
                    <g style="transform: translate(45px, 15px) scale(0.6);">
                        <path d="M 25,25 C 22,17 17,17 20,24 C 15,20 12,24 19,26 C 12,29 15,34 20,29 C 22,35 27,35 25,29 C 30,34 32,29 26,26 C 32,24 30,20 25,24 Z" style="fill: #ffccd5; stroke-width: 1.5;" />
                    </g>
                </svg>