<?xml version="1.0" encoding="utf-8"?>
<svg xmlns="http://www.w3.org/2000/svg" viewBox="0 0 100 100" width="100" height="100" xml:space="preserve" style="opacity: 0.85; fill: none; stroke: #3b204c; stroke-width: 2.2; stroke-linecap: round; stroke-linejoin: round;">
                    <!-- Monitor Frame -->
                    <rect x="20" y="20" width="60" height="45" rx="5" style="fill: #be9ecb;" />
                    <!-- Screen inside -->
                    <rect x="25" y="25" width="50" height="35" rx="2" style="fill: var(--paper-bg);" />
                    <!-- Code symbols inside screen -->
                    <path d="M 35,37 L 30,42 L 35,47 M 43,35 L 39,49 M 47,37 L 52,42 L 47,47" style="stroke: #3b204c; stroke-width: 2;" />
                    <!-- Stand -->
                    <path d="M 40,65 L 35,75 L 65,75 L 60,65 Z" style="fill: #be9ecb;" />
                    <!-- Cherry blossoms -->
                    <g style="transform: translate(65px, 12px) scale(0.65);">
                        <path d="M 25,25 C 22,17 17,17 20,24 C 15,20 12,24 19,26 C 12,29 15,34 20,29 C 22,35 27,35 25,29 C 30,34 32,29 26,26 C 32,24 30,20 25,24 Z" style="fill: #ffccd5; stroke-width: 1.5;" />
                    </g>
                    <g style="transform: translate(10px, 48px) scale(0.65);">
                        <path d="M 25,25 C 22,17 17,17 20,24 C 15,20 12,24 19,26 C 12,29 15,34 20,29 C 22,35 27,35 25,29 C 30,34 32,29 26,26 C 32,24 30,20 25,24 Z" style="fill: #ffe5ec; stroke-width: 1.5;" />
                    </g>
                </svg>