<?xml version="1.0" encoding="utf-8"?>
<svg xmlns="http://www.w3.org/2000/svg" viewBox="0 0 100 100" width="65" height="65" xml:space="preserve" style="opacity: 0.85; fill: none; stroke: #3b204c; stroke-width: 2.2; stroke-linecap: round; stroke-linejoin: round;">
                    <!-- Tea Cup Body -->
                    <path d="M 30,50 C 30,70 70,70 70,50 Z" style="fill: #fffcf2;" />
                    <path d="M 27,48 L 73,48 Z" />
                    <!-- Cup Handle -->
                    <path d="M 70,52 C 82,52 82,62 70,62" />
                    <!-- Saucer -->
                    <path d="M 20,72 Q 50,82 80,72 L 75,77 Q 50,85 25,77 Z" style="fill: #fffcf2;" />
                    <!-- Steam Lines -->
                    <path d="M 40,40 Q 45,30 40,20" />
                    <path d="M 50,40 Q 55,28 50,18" />
                    <path d="M 60,40 Q 65,30 60,20" />
                    <!-- Blossoms floating next to the cup -->
                    <g style="transform: translate(5px, 25px) scale(0.6);">
                        <path d="M 25,25 C 22,17 17,17 20,24 C 15,20 12,24 19,26 C 12,29 15,34 20,29 C 22,35 27,35 25,29 C 30,34 32,29 26,26 C 32,24 30,20 25,24 Z" style="fill: #ffccd5; stroke-width: 1.5;" />
                    </g>
                </svg>