<?xml version="1.0" encoding="UTF-8"?>
<svg version="1.1" xmlns="http://www.w3.org/2000/svg" width="282" height="315">
<path d="M0 0 C3.96 0 7.92 0 12 0 C12 0.66 12 1.32 12 2 C12.66 2 13.32 2 14 2 C14 5.96 14 9.92 14 14 C13.34 14 12.68 14 12 14 C12 14.66 12 15.32 12 16 C10 18 10 18 7 19 C7 19.66 7 20.32 7 21 C6.34 21 5.68 21 5 21 C5 21.66 5 22.32 5 23 C7.64 23 10.28 23 13 23 C13 22.01 13 21.02 13 20 C22.24 20 31.48 20 41 20 C41 20.99 41 21.98 41 23 C41.70125 22.814375 42.4025 22.62875 43.125 22.4375 C46.33888698 21.94843024 48.83560336 22.33768442 52 23 C52 23.66 52 24.32 52 25 C53.65 25 55.3 25 57 25 C57 25.66 57 26.32 57 27 C58.98 27 60.96 27 63 27 C63 27.66 63 28.32 63 29 C64.65 29 66.3 29 68 29 C68 29.99 68 30.98 68 32 C68.66 32 69.32 32 70 32 C70 32.66 70 33.32 70 34 C71.65 34 73.3 34 75 34 C75 34.66 75 35.32 75 36 C75.66 36 76.32 36 77 36 C77 36.66 77 37.32 77 38 C77.66 38 78.32 38 79 38 C79 38.66 79 39.32 79 40 C80.32 40 81.64 40 83 40 C84.75 41.375 84.75 41.375 86 43 C86 43.66 86 44.32 86 45 C86.66 45 87.32 45 88 45 C88 46.32 88 47.64 88 49 C88.66 49 89.32 49 90 49 C91.625 50.375 91.625 50.375 93 52 C93 52.66 93 53.32 93 54 C93.66 54 94.32 54 95 54 C95.66 56.31 96.32 58.62 97 61 C97.66 61 98.32 61 99 61 C99 62.32 99 63.64 99 65 C99.99 65 100.98 65 102 65 C102 66.65 102 68.3 102 70 C102.66 70 103.32 70 104 70 C104 71.98 104 73.96 104 76 C104.66 76 105.32 76 106 76 C106 78.97 106 81.94 106 85 C106.66 85 107.32 85 108 85 C108.91232225 89.64849908 109.15685882 94.15262873 109.125 98.875 C109.12101196 99.93182983 109.12101196 99.93182983 109.11694336 101.01000977 C108.9982493 114.0017507 108.9982493 114.0017507 107 116 C106.76924918 117.34747084 106.58846937 118.70377565 106.4375 120.0625 C106.293125 121.361875 106.14875 122.66125 106 124 C105.34 124 104.68 124 104 124 C104 126.31 104 128.62 104 131 C103.34 131 102.68 131 102 131 C101.87625 131.7425 101.7525 132.485 101.625 133.25 C101.04513299 135.80141485 100.26291261 137.7267573 99 140 C98.34 140 97.68 140 97 140 C97 140.66 97 141.32 97 142 C96.34 142 95.68 142 95 142 C95 143.65 95 145.3 95 147 C92.525 147.99 92.525 147.99 90 149 C90 149.66 90 150.32 90 151 C89.34 151 88.68 151 88 151 C88 152.65 88 154.3 88 156 C87.34 156 86.68 156 86 156 C86 156.66 86 157.32 86 158 C85.34 158 84.68 158 84 158 C84 158.66 84 159.32 84 160 C82.35 160 80.7 160 79 160 C79 160.99 79 161.98 79 163 C77.3125 165.1875 77.3125 165.1875 75 167 C72.25 167.25 72.25 167.25 70 167 C70 167.66 70 168.32 70 169 C69.34 169 68.68 169 68 169 C67.67 169.99 67.34 170.98 67 172 C65.68 172 64.36 172 63 172 C63 172.66 63 173.32 63 174 C61.02 174 59.04 174 57 174 C57 174.66 57 175.32 57 176 C55.35 176 53.7 176 52 176 C52 176.66 52 177.32 52 178 C48.37 178 44.74 178 41 178 C40.67 178.99 40.34 179.98 40 181 C31.09 181 22.18 181 13 181 C13 180.01 13 179.02 13 178 C9.37 178 5.74 178 2 178 C2 177.34 2 176.68 2 176 C0.68 176 -0.64 176 -2 176 C-2 175.34 -2 174.68 -2 174 C-4.31 174 -6.62 174 -9 174 C-9 173.34 -9 172.68 -9 172 C-10.65 171.67 -12.3 171.34 -14 171 C-14 170.34 -14 169.68 -14 169 C-14.66 169 -15.32 169 -16 169 C-16 168.34 -16 167.68 -16 167 C-16.7425 167.103125 -17.485 167.20625 -18.25 167.3125 C-21 167 -21 167 -23.3125 164.625 C-25 162 -25 162 -25 160 C-26.32 160 -27.64 160 -29 160 C-29 159.34 -29 158.68 -29 158 C-29.99 158 -30.98 158 -32 158 C-32 157.34 -32 156.68 -32 156 C-32.66 156 -33.32 156 -34 156 C-34 154.35 -34 152.7 -34 151 C-34.66 151 -35.32 151 -36 151 C-36 150.34 -36 149.68 -36 149 C-36.66 149 -37.32 149 -38 149 C-38 148.34 -38 147.68 -38 147 C-38.99 147 -39.98 147 -41 147 C-41 145.35 -41 143.7 -41 142 C-41.66 142 -42.32 142 -43 142 C-43 141.34 -43 140.68 -43 140 C-43.66 140 -44.32 140 -45 140 C-48 134.375 -48 134.375 -48 131 C-48.66 131 -49.32 131 -50 131 C-50 128.69 -50 126.38 -50 124 C-50.66 124 -51.32 124 -52 124 C-52 121.03 -52 118.06 -52 115 C-52.66 115 -53.32 115 -54 115 C-54 106.09 -54 97.18 -54 88 C-53.34 88 -52.68 88 -52 88 C-52 87.01 -52 86.02 -52 85 C-50.35 85 -48.7 85 -47 85 C-47 85.99 -47 86.98 -47 88 C-45.35 88 -43.7 88 -42 88 C-42 88.66 -42 89.32 -42 90 C-40.68 90 -39.36 90 -38 90 C-38 90.66 -38 91.32 -38 92 C-37.34 92 -36.68 92 -36 92 C-35.80515062 94.43711614 -35.61884822 96.87437398 -35.4375 99.3125 C-35.38142578 100.00279297 -35.32535156 100.69308594 -35.26757812 101.40429688 C-35.03418495 104.62512274 -34.96775782 106.90327345 -36 110 C-35.01 110 -34.02 110 -33 110 C-33 112.97 -33 115.94 -33 119 C-32.34 119 -31.68 119 -31 119 C-31 121.31 -31 123.62 -31 126 C-30.34 126 -29.68 126 -29 126 C-29 127.32 -29 128.64 -29 130 C-28.01 130.33 -27.02 130.66 -26 131 C-26 131.66 -26 132.32 -26 133 C-25.34 133 -24.68 133 -24 133 C-24 134.32 -24 135.64 -24 137 C-23.34 137 -22.68 137 -22 137 C-22 137.66 -22 138.32 -22 139 C-21.34 139 -20.68 139 -20 139 C-17.375 141.375 -17.375 141.375 -15 144 C-15 144.66 -15 145.32 -15 146 C-14.34 146 -13.68 146 -13 146 C-13 146.66 -13 147.32 -13 148 C-12.34 148 -11.68 148 -11 148 C-11 148.99 -11 149.98 -11 151 C-9.35 151 -7.7 151 -6 151 C-6 151.66 -6 152.32 -6 153 C-5.34 153 -4.68 153 -4 153 C-4 153.66 -4 154.32 -4 155 C-2.68 155 -1.36 155 0 155 C0 155.66 0 156.32 0 157 C1.11375 156.95875 2.2275 156.9175 3.375 156.875 C7 157 7 157 9 159 C11.32275177 159.40047444 13.65739357 159.7397104 16 160 C16 160.66 16 161.32 16 162 C23.26 162 30.52 162 38 162 C38 161.34 38 160.68 38 160 C40.97 160 43.94 160 47 160 C47 159.01 47 158.02 47 157 C49.31 157 51.62 157 54 157 C54 156.34 54 155.68 54 155 C55.32 155 56.64 155 58 155 C58 154.34 58 153.68 58 153 C58.66 153 59.32 153 60 153 C60 152.34 60 151.68 60 151 C61.65 151 63.3 151 65 151 C65 150.01 65 149.02 65 148 C65.66 148 66.32 148 67 148 C67 147.34 67 146.68 67 146 C67.66 146 68.32 146 69 146 C69 145.34 69 144.68 69 144 C71.375 141.375 71.375 141.375 74 139 C74.66 139 75.32 139 76 139 C76 138.34 76 137.68 76 137 C76.66 137 77.32 137 78 137 C78.12375 136.401875 78.2475 135.80375 78.375 135.1875 C79 133 79 133 81 130 C81.66 130 82.32 130 83 130 C83 128.68 83 127.36 83 126 C83.66 126 84.32 126 85 126 C85 123.69 85 121.38 85 119 C85.66 119 86.32 119 87 119 C87 117.02 87 115.04 87 113 C87.99 112.67 88.98 112.34 90 112 C89.9278125 111.34515625 89.855625 110.6903125 89.78125 110.015625 C89.06648747 102.98712682 88.88908396 96.06165482 89 89 C88.34 88.67 87.68 88.34 87 88 C87 86.02 87 84.04 87 82 C86.34 82 85.68 82 85 82 C85 79.69 85 77.38 85 75 C84.34 75 83.68 75 83 75 C82.5978125 73.824375 82.5978125 73.824375 82.1875 72.625 C81.15185568 69.71885077 81.15185568 69.71885077 78 68 C78 66.68 78 65.36 78 64 C77.34 64 76.68 64 76 64 C76 63.01 76 62.02 76 61 C75.34 61 74.68 61 74 61 C74 60.34 74 59.68 74 59 C73.34 59 72.68 59 72 59 C72 58.34 72 57.68 72 57 C70.35 56.34 68.7 55.68 67 55 C67 54.01 67 53.02 67 52 C66.34 52 65.68 52 65 52 C65 51.34 65 50.68 65 50 C63.35 50 61.7 50 60 50 C60 49.34 60 48.68 60 48 C59.34 48 58.68 48 58 48 C58 47.34 58 46.68 58 46 C56.68 46 55.36 46 54 46 C53.34 45.34 52.68 44.68 52 44 C49.42938689 43.35232207 49.42938689 43.35232207 47 43 C47 42.34 47 41.68 47 41 C44.03 41 41.06 41 38 41 C38 40.34 38 39.68 38 39 C30.74 39 23.48 39 16 39 C16 39.66 16 40.32 16 41 C15.34 41 14.68 41 14 41 C14 41.66 14 42.32 14 43 C16.31 43 18.62 43 21 43 C21 43.66 21 44.32 21 45 C22.32 45 23.64 45 25 45 C25 45.66 25 46.32 25 47 C27.31 47 29.62 47 32 47 C32 47.66 32 48.32 32 49 C33.32 49 34.64 49 36 49 C36.33 49.66 36.66 50.32 37 51 C39.02463255 51.65213292 39.02463255 51.65213292 41 52 C41 52.66 41 53.32 41 54 C42.65 54 44.3 54 46 54 C46.3449145 55.33038449 46.67516582 56.66457061 47 58 C47.2475 58.804375 47.495 59.60875 47.75 60.4375 C48 63 48 63 46.875 65.75 C44.55236287 68.53716456 43.53776444 68.57224754 40 69 C38.05871747 68.91878575 36.11915769 68.77195686 34.1875 68.5625 C33.21167969 68.46066406 32.23585938 68.35882813 31.23046875 68.25390625 C30.12638672 68.12822266 30.12638672 68.12822266 29 68 C29 67.34 29 66.68 29 66 C26.69 66 24.38 66 22 66 C22 65.34 22 64.68 22 64 C20.68 64 19.36 64 18 64 C18 63.01 18 62.02 18 61 C16.35 61 14.7 61 13 61 C13 60.34 13 59.68 13 59 C6.4 59 -0.2 59 -7 59 C-7 58.34 -7 57.68 -7 57 C-8.65 57 -10.3 57 -12 57 C-12 56.34 -12 55.68 -12 55 C-12.66 55 -13.32 55 -14 55 C-14 52.03 -14 49.06 -14 46 C-14.66 46 -15.32 46 -16 46 C-16 44.35 -16 42.7 -16 41 C-16.66 41 -17.32 41 -18 41 C-18 36.38 -18 31.76 -18 27 C-17.34 27 -16.68 27 -16 27 C-16.04125 26.2575 -16.0825 25.515 -16.125 24.75 C-15.99601866 21.91241048 -15.42948778 20.41226062 -14 18 C-13.34 18 -12.68 18 -12 18 C-12 16.35 -12 14.7 -12 13 C-11.01 13 -10.02 13 -9 13 C-9 11.68 -9 10.36 -9 9 C-8.34 9 -7.68 9 -7 9 C-7 8.34 -7 7.68 -7 7 C-6.34 7 -5.68 7 -5 7 C-4.67 6.01 -4.34 5.02 -4 4 C-3.34 4 -2.68 4 -2 4 C-2 3.34 -2 2.68 -2 2 C-1.34 2 -0.68 2 0 2 C0 1.34 0 0.68 0 0 Z " fill="#DFCDE7" transform="translate(115,66)"/>
<path d="M0 0 C0.33 0.66 0.66 1.32 1 2 C1.66 2 2.32 2 3 2 C3.33 1.34 3.66 0.68 4 0 C5.32 0.66 6.64 1.32 8 2 C8 2.99 8 3.98 8 5 C8.99 5 9.98 5 11 5 C11.91234291 9.64860436 12.15630393 14.15257874 12.125 18.875 C12.12306641 19.57882813 12.12113281 20.28265625 12.11914062 21.0078125 C12.07955805 25.75772193 11.7801511 30.31909339 11 35 C10.01 35 9.02 35 8 35 C8 37.64 8 40.28 8 43 C7.01 43 6.02 43 5 43 C4.67 43.99 4.34 44.98 4 46 C2.68 46 1.36 46 0 46 C0.01160156 45.33613281 0.02320313 44.67226562 0.03515625 43.98828125 C0.11893409 37.43693213 0.11893409 37.43693213 -1 31 C-1.99 31 -2.98 31 -4 31 C-4 31.66 -4 32.32 -4 33 C-4.66 33 -5.32 33 -6 33 C-7.05017991 24.64703057 -7.70185381 16.10556144 -5 8 C-5.99 7.67 -6.98 7.34 -8 7 C-6.86500606 3.70851757 -6.00716624 3.0040131 -2.875 1.25 C-1.92625 0.8375 -0.9775 0.425 0 0 Z M0 31 C1 33 1 33 1 33 Z " fill="#DFCDE7" transform="translate(212,146)"/>

<path d="M0 0 C0.33 0.66 0.66 1.32 1 2 C1.66 2 2.32 2 3 2 C3 3.32 3 4.64 3 6 C3.99 6 4.98 6 6 6 C6 7.65 6 9.3 6 11 C6.66 11 7.32 11 8 11 C8 12.98 8 14.96 8 17 C8.66 17 9.32 17 10 17 C10 19.97 10 22.94 10 26 C9.01 25.34 8.02 24.68 7 24 C7 23.34 7 22.68 7 22 C6.21625 22.165 5.4325 22.33 4.625 22.5 C1.95786492 23.00802573 -0.28002519 23 -3 23 C-3.33 23.99 -3.66 24.98 -4 26 C-4.66 26 -5.32 26 -6 26 C-6 26.66 -6 27.32 -6 28 C-5.01 28 -4.02 28 -3 28 C-3.66 32.95 -4.32 37.9 -5 43 C-5.66 42.67 -6.32 42.34 -7 42 C-7 38.04 -7 34.08 -7 30 C-7.66 29.67 -8.32 29.34 -9 29 C-9 27.02 -9 25.04 -9 23 C-9.66 23 -10.32 23 -11 23 C-11 20.69 -11 18.38 -11 16 C-11.66 16 -12.32 16 -13 16 C-13.33 14.35 -13.66 12.7 -14 11 C-13.34 11 -12.68 11 -12 11 C-12 12.32 -12 13.64 -12 15 C-11.34 15 -10.68 15 -10 15 C-9.67 16.32 -9.34 17.64 -9 19 C-8.54625 18.34 -8.0925 17.68 -7.625 17 C-7.08875 16.34 -6.5525 15.68 -6 15 C-5.34 15 -4.68 15 -4 15 C-3.67 14.01 -3.34 13.02 -3 12 C-0.4375 10.8125 -0.4375 10.8125 2 10 C2 7.69 2 5.38 2 3 C1.34 3 0.68 3 0 3 C0 2.01 0 1.02 0 0 Z " fill="#DFCDE7" transform="translate(211,125)"/>
<path d="M0 0 C1.65 0 3.3 0 5 0 C5 0.99 5 1.98 5 3 C6.65 3 8.3 3 10 3 C10 3.66 10 4.32 10 5 C11.32 5.33 12.64 5.66 14 6 C12.35 6 10.7 6 9 6 C9 5.34 9 4.68 9 4 C5.7 4 2.4 4 -1 4 C-0.855625 5.60875 -0.71125 7.2175 -0.5625 8.875 C-0.48128906 9.77992188 -0.40007813 10.68484375 -0.31640625 11.6171875 C-0.13010715 14.01110861 -0.13010715 14.01110861 1 16 C1.99 16.66 2.98 17.32 4 18 C3.34 18 2.68 18 2 18 C2 18.66 2 19.32 2 20 C3.32 20.66 4.64 21.32 6 22 C6 22.66 6 23.32 6 24 C6.66 24 7.32 24 8 24 C8.33 23.34 8.66 22.68 9 22 C9 22.99 9 23.98 9 25 C8.50757812 25.46535156 8.01515625 25.93070313 7.5078125 26.41015625 C5.79900479 27.89586869 5.79900479 27.89586869 5.7421875 30.12109375 C5.78601563 30.88550781 5.82984375 31.64992187 5.875 32.4375 C6.03220543 35.53444689 5.88324628 38.01734525 5 41 C5.66 41.33 6.32 41.66 7 42 C6.34 43.98 5.68 45.96 5 48 C4.67 47.34 4.34 46.68 4 46 C3.34 46 2.68 46 2 46 C2 43.69 2 41.38 2 39 C1.34 39 0.68 39 0 39 C0 36.03 0 33.06 0 30 C-0.66 30 -1.32 30 -2 30 C-2 21.09 -2 12.18 -2 3 C-1.34 3 -0.68 3 0 3 C0 2.01 0 1.02 0 0 Z " fill="#DFCDE7" transform="translate(63,151)"/>
<path d="M0 0 C2.475 0.495 2.475 0.495 5 1 C5 1.66 5 2.32 5 3 C6.65 3 8.3 3 10 3 C10.3449145 4.33038449 10.67516582 5.66457061 11 7 C11.2475 7.804375 11.495 8.60875 11.75 9.4375 C12 12 12 12 10.875 14.75 C8.55236287 17.53716456 7.53776444 17.57224754 4 18 C2.05871747 17.91878575 0.11915769 17.77195686 -1.8125 17.5625 C-2.78832031 17.46066406 -3.76414063 17.35882813 -4.76953125 17.25390625 C-5.50558594 17.17011719 -6.24164063 17.08632812 -7 17 C-7 16.34 -7 15.68 -7 15 C-9.31 15 -11.62 15 -14 15 C-14 14.34 -14 13.68 -14 13 C-15.32 12.67 -16.64 12.34 -18 12 C-16.35 12 -14.7 12 -13 12 C-13 12.66 -13 13.32 -13 14 C-11.02 14 -9.04 14 -7 14 C-6.67 13.34 -6.34 12.68 -6 12 C-3.9375 10.875 -3.9375 10.875 -2 10 C-2 9.34 -2 8.68 -2 8 C-1.34 8 -0.68 8 0 8 C0.66 6.35 1.32 4.7 2 3 C1.34 2.67 0.68 2.34 0 2 C0 1.34 0 0.68 0 0 Z " fill="#DFCDE7" transform="translate(151,117)"/>
<path d="M0 0 C0.33 0.66 0.66 1.32 1 2 C1.66 2 2.32 2 3 2 C3 2.66 3 3.32 3 4 C4.32 4 5.64 4 7 4 C7 4.66 7 5.32 7 6 C8.11375 5.95875 9.2275 5.9175 10.375 5.875 C14 6 14 6 16 8 C18.32275177 8.40047444 20.65739357 8.7397104 23 9 C22.67 9.66 22.34 10.32 22 11 C19.98177083 10.96744792 17.96354167 10.93489583 15.9453125 10.90234375 C13.91814596 10.87350758 13.91814596 10.87350758 12 12 C11.67 12.66 11.34 13.32 11 14 C11 13.34 11 12.68 11 12 C10.01 12 9.02 12 8 12 C7.67 13.32 7.34 14.64 7 16 C6.01 16 5.02 16 4 16 C3.67 16.99 3.34 17.98 3 19 C2.34 19 1.68 19 1 19 C0.67 19.66 0.34 20.32 0 21 C-0.33 21.33 -0.66 21.66 -1 22 C0.98 22 2.96 22 5 22 C5 22.33 5 22.66 5 23 C2.69 23 0.38 23 -2 23 C-2 22.34 -2 21.68 -2 21 C-3.65 20.67 -5.3 20.34 -7 20 C-7 19.34 -7 18.68 -7 18 C-7.66 18 -8.32 18 -9 18 C-8.67 17.34 -8.34 16.68 -8 16 C-6.68 16.33 -5.36 16.66 -4 17 C-3.34 15.02 -2.68 13.04 -2 11 C-1.34 11 -0.68 11 0 11 C0.33 9.68 0.66 8.36 1 7 C1.66 7 2.32 7 3 7 C3.33 6.34 3.66 5.68 4 5 C2.68 5.33 1.36 5.66 0 6 C0 4.02 0 2.04 0 0 Z " fill="#DFCDE7" transform="translate(108,217)"/>
<path d="M0 0 C0 0.99 0 1.98 0 3 C0.66 3 1.32 3 2 3 C2 4.32 2 5.64 2 7 C2.66 7.33 3.32 7.66 4 8 C3.34 8 2.68 8 2 8 C2.33 8.99 2.66 9.98 3 11 C1.02 11.33 -0.96 11.66 -3 12 C-3.33 13.32 -3.66 14.64 -4 16 C-4.66 16 -5.32 16 -6 16 C-7.38232443 17.62626404 -8.71937515 19.2925002 -10 21 C-10 19.02 -10 17.04 -10 15 C-10.66 15 -11.32 15 -12 15 C-12 13.68 -12 12.36 -12 11 C-12.99 11 -13.98 11 -15 11 C-14.67 10.01 -14.34 9.02 -14 8 C-12.02 8.495 -12.02 8.495 -10 9 C-10.061875 8.071875 -10.12375 7.14375 -10.1875 6.1875 C-10 3 -10 3 -8.9375 1.125 C-5.99772876 -0.58196395 -3.32129197 -0.18799766 0 0 Z " fill="#DFCDE7" transform="translate(211,125)"/>
<path d="M0 0 C1.65 0 3.3 0 5 0 C5 0.99 5 1.98 5 3 C6.65 3 8.3 3 10 3 C10 3.66 10 4.32 10 5 C11.32 5.33 12.64 5.66 14 6 C12.35 6 10.7 6 9 6 C9 5.34 9 4.68 9 4 C5.7 4 2.4 4 -1 4 C-1 12.58 -1 21.16 -1 30 C-1.33 30 -1.66 30 -2 30 C-2 21.09 -2 12.18 -2 3 C-1.34 3 -0.68 3 0 3 C0 2.01 0 1.02 0 0 Z " fill="#DFCDE7" transform="translate(63,151)"/>
<path d="M0 0 C4 0 4 0 5.75 1.375 C7 3 7 3 7 5 C7.66 5 8.32 5 9 5 C9 6.32 9 7.64 9 9 C9.66 9.33 10.32 9.66 11 10 C9.68 10 8.36 10 7 10 C6.67 10.66 6.34 11.32 6 12 C6 11.34 6 10.68 6 10 C4.68 9.67 3.36 9.34 2 9 C2.04125 8.2575 2.0825 7.515 2.125 6.75 C1.99601866 3.91241048 1.42948778 2.41226062 0 0 Z " fill="#DFCDE7" transform="translate(194,106)"/>
<path d="M0 0 C0.33 0.66 0.66 1.32 1 2 C2.98 2 4.96 2 7 2 C7 2.66 7 3.32 7 4 C8.65 4 10.3 4 12 4 C12 4.99 12 5.98 12 7 C12.66 7 13.32 7 14 7 C14 7.66 14 8.32 14 9 C15.65 9 17.3 9 19 9 C19 9.66 19 10.32 19 11 C19.66 11 20.32 11 21 11 C21 11.66 21 12.32 21 13 C21.66 13.33 22.32 13.66 23 14 C22.01 14 21.02 14 20 14 C20 13.34 20 12.68 20 12 C19.34 12 18.68 12 18 12 C18 11.34 18 10.68 18 10 C16.35 10 14.7 10 13 10 C13 9.34 13 8.68 13 8 C11.68 8.33 10.36 8.66 9 9 C9 7.68 9 6.36 9 5 C7.88625 4.855625 6.7725 4.71125 5.625 4.5625 C2 4 2 4 0 3 C0 2.01 0 1.02 0 0 Z " fill="#DFCDE7" transform="translate(171,91)"/>
<path d="M0 0 C0.66 0 1.32 0 2 0 C2.33 1.32 2.66 2.64 3 4 C3.99 4 4.98 4 6 4 C5.67 4.99 5.34 5.98 5 7 C4.34 7 3.68 7 3 7 C2.67 7.99 2.34 8.98 2 10 C0.68 10 -0.64 10 -2 10 C-2.1953125 3.9453125 -2.1953125 3.9453125 -2 2 C-1.34 1.34 -0.68 0.68 0 0 Z " fill="#DFCDE7" transform="translate(106,218)"/>
<path d="M0 0 C0.66 0 1.32 0 2 0 C2 0.99 2 1.98 2 3 C2.66 3 3.32 3 4 3 C4 3.66 4 4.32 4 5 C4.66 5 5.32 5 6 5 C5.34 6.98 4.68 8.96 4 11 C3.01 10.67 2.02 10.34 1 10 C1.66 10 2.32 10 3 10 C3 9.34 3 8.68 3 8 C1.68 7.34 0.36 6.68 -1 6 C-1 5.34 -1 4.68 -1 4 C-1.66 4 -2.32 4 -3 4 C-3.33 4.66 -3.66 5.32 -4 6 C-4 5.01 -4 4.02 -4 3 C-2.68 2.67 -1.36 2.34 0 2 C0 1.34 0 0.68 0 0 Z " fill="#DFCDE7" transform="translate(88,201)"/>
<path d="M0 0 C2.05078125 0.03255208 4.1015625 0.06510417 6.15234375 0.09765625 C6.15234375 1.41765625 6.15234375 2.73765625 6.15234375 4.09765625 C2.85234375 4.42765625 -0.44765625 4.75765625 -3.84765625 5.09765625 C-2.6076991 0.13782765 -2.6076991 0.13782765 0 0 Z " fill="#DFCDE7" transform="translate(101.84765625,95.90234375)"/>
<path d="M0 0 C1.32 0 2.64 0 4 0 C4 0.66 4 1.32 4 2 C6.31 2 8.62 2 11 2 C11 2.66 11 3.32 11 4 C12.32 4.33 13.64 4.66 15 5 C13.02 5 11.04 5 9 5 C8.67 5.66 8.34 6.32 8 7 C8 6.34 8 5.68 8 5 C7.21625 5.20625 6.4325 5.4125 5.625 5.625 C4.75875 5.74875 3.8925 5.8725 3 6 C2.34 5.34 1.68 4.68 1 4 C1.66 4 2.32 4 3 4 C3 3.01 3 2.02 3 1 C2.01 0.67 1.02 0.34 0 0 Z " fill="#DFCDE7" transform="translate(136,111)"/>
<path d="M0 0 C0.33 0.99 0.66 1.98 1 3 C0.34 3 -0.32 3 -1 3 C-1 3.66 -1 4.32 -1 5 C-1.66 5 -2.32 5 -3 5 C-3 6.32 -3 7.64 -3 9 C-3.99 9 -4.98 9 -6 9 C-6 10.32 -6 11.64 -6 13 C-5.34 13.33 -4.68 13.66 -4 14 C-4.66 14 -5.32 14 -6 14 C-6 14.66 -6 15.32 -6 16 C-6.66 16 -7.32 16 -8 16 C-8.33 16.66 -8.66 17.32 -9 18 C-9 16.35 -9 14.7 -9 13 C-8.34 13 -7.68 13 -7 13 C-7 11.35 -7 9.7 -7 8 C-6.01 8 -5.02 8 -4 8 C-4 6.68 -4 5.36 -4 4 C-3.34 4 -2.68 4 -2 4 C-2 3.34 -2 2.68 -2 2 C-1.34 2 -0.68 2 0 2 C0 1.34 0 0.68 0 0 Z " fill="#DFCDE7" transform="translate(110,71)"/>
<path d="M0 0 C0.66 0.99 1.32 1.98 2 3 C1.67 3.99 1.34 4.98 1 6 C3.64 6 6.28 6 9 6 C9 6.33 9 6.66 9 7 C5.37 7 1.74 7 -2 7 C-2 6.34 -2 5.68 -2 5 C-3.32 4.67 -4.64 4.34 -6 4 C-4.02 3.34 -2.04 2.68 0 2 C0 1.34 0 0.68 0 0 Z " fill="#DFCDE7" transform="translate(119,237)"/>
<path d="M0 0 C0.66 0.33 1.32 0.66 2 1 C1.67 3.64 1.34 6.28 1 9 C0.34 9 -0.32 9 -1 9 C-1 11.31 -1 13.62 -1 16 C-2.64826111 13.03312999 -3.44271087 10.34373475 -4 7 C-2.68 7.33 -1.36 7.66 0 8 C0 5.36 0 2.72 0 0 Z " fill="#DFCDE7" transform="translate(220,181)"/>
<path d="M0 0 C0.33 0.66 0.66 1.32 1 2 C2.98 2 4.96 2 7 2 C7 2.66 7 3.32 7 4 C8.65 4 10.3 4 12 4 C11.67 4.99 11.34 5.98 11 7 C11 6.34 11 5.68 11 5 C9.9275 5.04125 8.855 5.0825 7.75 5.125 C4.34252515 5.0114175 2.79260369 4.78726636 0 3 C0 2.01 0 1.02 0 0 Z " fill="#DFCDE7" transform="translate(171,91)"/>
<path d="M0 0 C2.31 0 4.62 0 7 0 C7 0.33 7 0.66 7 1 C5.02 1 3.04 1 1 1 C1.33 2.32 1.66 3.64 2 5 C-1.63 5 -5.26 5 -9 5 C-9 4.34 -9 3.68 -9 3 C-6.03 3 -3.06 3 0 3 C0 2.01 0 1.02 0 0 Z " fill="#DFCDE7" transform="translate(162,223)"/>
<path d="M0 0 C-0.33 2.31 -0.66 4.62 -1 7 C-1.99 7.33 -2.98 7.66 -4 8 C-4.1875 5.125 -4.1875 5.125 -4 2 C-1 0 -1 0 0 0 Z " fill="#DFCDE7" transform="translate(128,75)"/>
<path d="M0 0 C1.65 0 3.3 0 5 0 C4.34 1.65 3.68 3.3 3 5 C2.34 5 1.68 5 1 5 C0.67 5.66 0.34 6.32 0 7 C0 5.68 0 4.36 0 3 C-0.66 2.67 -1.32 2.34 -2 2 C-1.34 2 -0.68 2 0 2 C0 1.34 0 0.68 0 0 Z " fill="#DFCDE7" transform="translate(211,201)"/>
<path d="M0 0 C0.33 0 0.66 0 1 0 C2.125 6.75 2.125 6.75 1 9 C0.34 9 -0.32 9 -1 9 C-1.33 10.32 -1.66 11.64 -2 13 C-2 10.69 -2 8.38 -2 6 C-1.34 6 -0.68 6 0 6 C0 4.02 0 2.04 0 0 Z " fill="#DFCDE7" transform="translate(202,179)"/>
<path d="M0 0 C0.99 0 1.98 0 3 0 C3 0.66 3 1.32 3 2 C4.65 2 6.3 2 8 2 C8 2.66 8 3.32 8 4 C9.32 4.33 10.64 4.66 12 5 C10.35 5 8.7 5 7 5 C7 4.34 7 3.68 7 3 C4.69 3 2.38 3 0 3 C0 2.01 0 1.02 0 0 Z " fill="#DFCDE7" transform="translate(65,152)"/>
<path d="M0 0 C2.31 0 4.62 0 7 0 C7 0.66 7 1.32 7 2 C5.35 2 3.7 2 2 2 C2 2.99 2 3.98 2 5 C1.01 5.33 0.02 5.66 -1 6 C-0.67 4.02 -0.34 2.04 0 0 Z " fill="#DFCDE7" transform="translate(192,224)"/>
<path d="M0 0 C0.33 0.66 0.66 1.32 1 2 C0.34 2 -0.32 2 -1 2 C-1 2.66 -1 3.32 -1 4 C-1.66 4 -2.32 4 -3 4 C-3.12375 4.639375 -3.2475 5.27875 -3.375 5.9375 C-3.58125 6.618125 -3.7875 7.29875 -4 8 C-4.99 8.495 -4.99 8.495 -6 9 C-6 7.68 -6 6.36 -6 5 C-5.34 5 -4.68 5 -4 5 C-4 4.34 -4 3.68 -4 3 C-3.34 3 -2.68 3 -2 3 C-2 2.34 -2 1.68 -2 1 C-1.34 0.67 -0.68 0.34 0 0 Z " fill="#DFCDE7" transform="translate(186,209)"/>
<path d="M0 0 C0.33 0 0.66 0 1 0 C1 1.65 1 3.3 1 5 C1.66 5 2.32 5 3 5 C3.33 4.34 3.66 3.68 4 3 C3.67 4.98 3.34 6.96 3 9 C2.67 8.34 2.34 7.68 2 7 C1.34 7 0.68 7 0 7 C0 4.69 0 2.38 0 0 Z " fill="#DFCDE7" transform="translate(65,190)"/>
</svg>
