<svg xmlns="http://www.w3.org/2000/svg" viewBox="0 0 100 100" width="80" height="80" xml:space="preserve" style="opacity: 0.85; fill: none; stroke: #3b204c; stroke-width: 2.2; stroke-linecap: round; stroke-linejoin: round;">
  <rect x="38" y="10" width="24" height="10" rx="2" style="fill: #ffccd5;" />
  <rect x="38" y="20" width="24" height="4" rx="1" style="fill: #3b204c; stroke-width: 1.2;" />
  <rect x="38" y="24" width="24" height="54" rx="2" style="fill: #fffdf5;" />
  <rect x="40" y="28" width="20" height="46" rx="1" style="fill: #ffe5ec; stroke-width: 1.2;" />
  <polygon points="38,78 62,78 50,96" style="fill: #ffd8e6;" />
  <polygon points="46,90 54,90 50,98" style="fill: #3b204c; stroke: none;" />
  <g transform="translate(64px, 30px) scale(0.5);">
    <path d="M 25,25 C 22,17 17,17 20,24 C 15,20 12,24 19,26 C 12,29 15,34 20,29 C 22,35 27,35 25,29 C 30,34 32,29 26,26 C 32,24 30,20 25,24 Z" style="fill: #c7f9cc; stroke-width: 1.5;" />
  </g>
  <g transform="translate(5px, 60px) scale(0.5);">
    <path d="M 25,25 C 22,17 17,17 20,24 C 15,20 12,24 19,26 C 12,29 15,34 20,29 C 22,35 27,35 25,29 C 30,34 32,29 26,26 C 32,24 30,20 25,24 Z" style="fill: #ffccd5; stroke-width: 1.5;" />
  </g>
</svg>
